<svg xmlns="http://www.w3.org/2000/svg" width="180" height="52"><defs><style>.a{fill:#fff}</style></defs><path class="a" d="M146.301 6.997a1.378 1.378 0 011.92 0l6.707 6.628a1.319 1.319 0 01.042 1.841l-6.609 6.527a1.373 1.373 0 01-1.92.007 1.32 1.32 0 010-1.89l5.618-5.613-5.759-5.613a1.306 1.306 0 01.001-1.887z"/><path class="a" d="M135 14.5A14.5 14.5 0 10149.5 0 14.5 14.5 0 00135 14.5zm2.231 0a12.264 12.264 0 0120.941-8.675 12.266 12.266 0 11-17.347 17.347 12.164 12.164 0 01-3.594-8.672z"/><g><g fill="#49bcbd" stroke="#fff" stroke-width="2" transform="translate(0 2)"><rect width="180" height="50" rx="24" stroke="none"/><rect x="1" y="1" width="178" height="48" rx="23" fill="none"/></g><text transform="translate(88 34)" font-size="16" font-family="コーポレート明朝,serif" font-weight="700" fill="#fff"><tspan x="-19.88" y="0">More</tspan></text><path class="a" d="M145.988 22.619a1.946 1.946 0 011.92 0l6.708 4.308a.667.667 0 01.042 1.2l-6.609 4.245a1.938 1.938 0 01-1.92 0 .673.673 0 010-1.229l5.618-3.651-5.759-3.649a.668.668 0 010-1.224z"/><path class="a" d="M137.758 27.5A11.742 11.742 0 10149.5 15.758 11.74 11.74 0 00137.758 27.5zm1.806 0a9.932 9.932 0 0116.959-7.023 9.932 9.932 0 11-14.046 14.046 9.85 9.85 0 01-2.913-7.023z"/></g></svg>