<svg xmlns="http://www.w3.org/2000/svg" width="180" height="50"><defs><style>.c{fill:#49bcbd}</style></defs><rect width="180" height="50" rx="24" fill="#fff"/><text transform="translate(88 32)" font-size="16" font-family="コーポレート明朝,serif" font-weight="700" fill="#49bcbd"><tspan x="-19.88" y="0">More</tspan></text><path class="c" d="M144.074 19.898a1.73 1.73 0 011.92 0l6.708 4.944a.818.818 0 01.042 1.374l-6.609 4.872a1.724 1.724 0 01-1.92.005.824.824 0 010-1.41l5.618-4.19-5.759-4.19a.816.816 0 010-1.405z"/><path class="c" d="M135 25.5A12.5 12.5 0 10147.5 13 12.5 12.5 0 00135 25.5zm1.923 0a10.573 10.573 0 0118.053-7.475 10.573 10.573 0 11-14.951 14.951 10.486 10.486 0 01-3.1-7.476z"/></svg>