<?xml version="1.0" encoding="UTF-8"?> <svg xmlns="http://www.w3.org/2000/svg" width="180" height="50" viewBox="0 0 180 50"><defs><style>.a{fill:#fff;}.b,.c{fill:#49bcbd;}.b{font-size:16px;font-family:SourceHanSansJP-Bold, Source Han Sans JP;font-weight:700;}</style></defs><rect class="a" width="180" height="50" rx="24"></rect><text class="b" transform="translate(88 32)"><tspan x="-19.88" y="0">More</tspan></text><g transform="translate(131.625 9.625)"><path class="c" d="M14.815,10.273a1.73,1.73,0,0,1,1.92,0l6.708,4.944a.818.818,0,0,1,.042,1.374l-6.609,4.872a1.724,1.724,0,0,1-1.92.005.824.824,0,0,1,0-1.41l5.618-4.19-5.759-4.19A.816.816,0,0,1,14.815,10.273Z" transform="translate(-2.366)"></path><path class="c" d="M3.375,15.875a12.5,12.5,0,1,0,12.5-12.5A12.5,12.5,0,0,0,3.375,15.875Zm1.923,0A10.573,10.573,0,0,1,23.351,8.4,10.573,10.573,0,1,1,8.4,23.351,10.486,10.486,0,0,1,5.3,15.875Z"></path></g></svg> 