<svg xmlns="http://www.w3.org/2000/svg" width="180" height="50"><defs><style>.c{fill:#fff}</style></defs><g fill="#49bcbd" stroke="#fff" stroke-width="2"><rect width="180" height="50" rx="24" stroke="none"/><rect x="1" y="1" width="178" height="48" rx="23" fill="none"/></g><text transform="translate(88 32)" font-size="16" font-family="SourceHanSansJP-Bold,Source Han Sans JP" font-weight="700" fill="#fff"><tspan x="-19.88" y="0">More</tspan></text><path class="c" d="M145.988 20.619a1.946 1.946 0 011.92 0l6.708 4.308a.667.667 0 01.042 1.2l-6.609 4.245a1.938 1.938 0 01-1.92 0 .673.673 0 010-1.229l5.618-3.651-5.759-3.649a.668.668 0 010-1.224z"/><path class="c" d="M137.758 25.5A11.742 11.742 0 10149.5 13.758 11.74 11.74 0 00137.758 25.5zm1.806 0a9.932 9.932 0 0116.959-7.023 9.932 9.932 0 11-14.046 14.046 9.85 9.85 0 01-2.913-7.023z"/></svg>