<svg xmlns="http://www.w3.org/2000/svg" width="180" height="95.118"><defs><clipPath id="a"><path fill="none" d="M0 0h180v95.118H0z"/></clipPath><style>.c{fill:#fff}</style></defs><g clip-path="url(#a)"><path class="c" d="M150.068 61.192l-28.093-5.006a15.527 15.527 0 00.2-2.35 7.732 7.732 0 00-.1-1.532l27.991-4.9h.2a.306.306 0 000-.2l-.2-1.022a.306.306 0 00-.306-.2l-27.991 4.9a15.323 15.323 0 00-1.226-3.678l24.518-14.2v-.2a.306.306 0 000-.2l-.511-.817h-.409l-24.518 14.1a15.426 15.426 0 00-2.452-3.065l18.082-21.555v-.409l-.817-.613h-.404l-17.778 21.538a15.426 15.426 0 00-3.371-2.043l9.6-26.459a.306.306 0 00-.2-.306l-.919-.306h-.306l-9.6 26.356a15.426 15.426 0 00-3.882-.715V10.42a.306.306 0 00-.306-.306h-1.022a.306.306 0 00-.306.306v28.094a15.426 15.426 0 00-3.882.715l-9.6-26.459h-.306l-.919.306a.306.306 0 00-.2.306l9.6 26.356a15.426 15.426 0 00-3.371 2.043L79.171 20.228h-.409l-.817.613v.409l18.087 21.554a15.528 15.528 0 00-2.452 3.065l-24.415-14.2h-.409l-.511.817a.306.306 0 000 .2v.2l24.518 14.2a15.324 15.324 0 00-1.231 3.686l-27.889-4.9a.306.306 0 00-.306.2l-.2 1.022a.2.2 0 000 .2h.195l28 4.909c0 .511-.1 1.022-.1 1.532a15.528 15.528 0 00.2 2.35l-2.963.511 1.328.409 1.835.509a15.22 15.22 0 00.715 2.145 143.017 143.017 0 0025.131 5.006 15.426 15.426 0 001.941-2.247l1.226.715 3.473.2-3.882-2.247a15.323 15.323 0 001.328-3.575l24.518 4.291 3.575.613h.2v-.201l.2-1.022a.307.307 0 00-.1-.2h-.1"/><path class="c" d="M47.503 86.425a6.64 6.64 0 01-3.269-.817 5.517 5.517 0 01-2.145-2.145 6.538 6.538 0 01-.817-3.167 8.99 8.99 0 011.124-4.393 8.479 8.479 0 013.167-3.167 8.581 8.581 0 014.393-1.226 6.742 6.742 0 013.269.817 5.721 5.721 0 012.247 2.145 6.334 6.334 0 01.817 3.167 8.683 8.683 0 01-8.785 8.785m2.043-11.952a4.086 4.086 0 00-2.452.817 5.21 5.21 0 00-1.737 2.043 6.64 6.64 0 00-.613 2.86 3.371 3.371 0 00.817 2.452 2.86 2.86 0 002.145.817 4.291 4.291 0 002.452-.817 5.414 5.414 0 001.737-2.043 6.129 6.129 0 00.613-2.758 3.269 3.269 0 00-.919-2.452 3.065 3.065 0 00-2.247-.817m16.447 11.85a5.823 5.823 0 01-2.86-.715 5.005 5.005 0 01-1.43-1.124l-.306 1.532h-3.476l3.984-23.292h3.473l-1.737 10.42a7.764 7.764 0 011.737-1.124 7.253 7.253 0 013.065-.715 6.027 6.027 0 012.963.715 5.108 5.108 0 012.043 2.043 6.436 6.436 0 01.715 3.065 9.194 9.194 0 01-.2 1.635 9.807 9.807 0 01-1.532 3.882 8.683 8.683 0 01-2.86 2.656 7.355 7.355 0 01-3.575.919m1.43-11.748a4.393 4.393 0 00-2.043.511 5.108 5.108 0 00-1.737 1.532 5.619 5.619 0 00-1.022 2.35 4.8 4.8 0 00-.1 1.022 3.269 3.269 0 00.919 2.452 3.065 3.065 0 002.247.919 4.291 4.291 0 002.043-.511 5.108 5.108 0 001.737-1.532 5.823 5.823 0 001.015-2.451 4.8 4.8 0 00.1-1.022 3.065 3.065 0 00-3.167-3.269M82.338 86.22l.511-2.963h-2.043a1.532 1.532 0 01-.919-.2c-.1 0-.2-.1-.2-.511v-.409l1.328-7.457h3.368l.511-2.963h-3.373l.613-3.473H78.66l-.613 3.473h-1.634l-.511 2.963h1.635l-1.328 7.355a5.72 5.72 0 00-.1 1.124 2.758 2.758 0 001.022 2.35 4.393 4.393 0 002.758.715zm8.07.2a6.845 6.845 0 01-3.167-.715 5.21 5.21 0 01-2.145-2.043 6.232 6.232 0 01-.817-3.167 9.2 9.2 0 01.2-1.634 9.5 9.5 0 011.639-3.878 8.275 8.275 0 012.965-2.554 8.479 8.479 0 013.882-.919 6.027 6.027 0 014.291 1.532 5.516 5.516 0 011.627 4.189 9.6 9.6 0 01-.1 1.43 12.26 12.26 0 01-.409 1.43v.2h-10.52v.2a2.86 2.86 0 00.817 2.145 3.065 3.065 0 002.247.817 3.78 3.78 0 003.371-1.839h3.78l-.2.409a8.275 8.275 0 01-2.963 3.269 7.968 7.968 0 01-4.495 1.226m4.9-8.888v-.409a2.452 2.452 0 00-.817-1.941 3.167 3.167 0 00-2.145-.715 4.086 4.086 0 00-2.554.919 4.6 4.6 0 00-1.43 2.145zm7.972 8.693l1.328-7.662a4.6 4.6 0 011.328-2.758 3.78 3.78 0 012.444-.82h1.022l.613-3.575h-.306a5.21 5.21 0 00-2.758.715 6.538 6.538 0 00-1.43 1.124l.306-1.635h-3.473L99.909 86.22zm10.42 0l1.328-7.662a4.6 4.6 0 011.328-2.758 3.78 3.78 0 012.452-.817h1.022l.715-3.575h-.306a5.21 5.21 0 00-2.758.715 6.538 6.538 0 00-1.43 1.124l.306-1.635h-3.477l-2.554 14.506zm12.361.2a5.721 5.721 0 01-2.963-.715 5.21 5.21 0 01-2.043-2.145 6.64 6.64 0 01-.715-3.167 8.479 8.479 0 01.2-1.635 9.5 9.5 0 011.532-3.78 8.479 8.479 0 012.86-2.554 7.56 7.56 0 013.78-1.022 5.721 5.721 0 012.86.715 5.006 5.006 0 011.328 1.124l.306-1.532h3.474l-2.552 14.511h-3.473l.306-1.532-1.737 1.124a7.151 7.151 0 01-3.065.715m2.656-12.054a4.393 4.393 0 00-2.043.511 5.108 5.108 0 00-1.737 1.532 5.517 5.517 0 00-1.022 2.35 4.9 4.9 0 00-.1 1.022 3.371 3.371 0 00.919 2.554 3.065 3.065 0 002.247.919 4.29 4.29 0 002.043-.511 5.108 5.108 0 001.737-1.532 5.721 5.721 0 001.022-2.35 4.8 4.8 0 00.1-1.022 3.269 3.269 0 00-.919-2.452 3.065 3.065 0 00-2.247-.919m19.41 10.624a8.377 8.377 0 002.963-3.473l.2-.409h-3.78a3.575 3.575 0 01-3.371 2.043 2.656 2.656 0 01-2.145-.817 3.371 3.371 0 01-.715-2.35 8.48 8.48 0 01.1-1.226 6.129 6.129 0 011.532-3.473 3.78 3.78 0 012.86-1.124 2.86 2.86 0 011.839.511 2.35 2.35 0 01.817 1.43v.2h3.678v-.306a5.108 5.108 0 00-1.737-3.575 6.232 6.232 0 00-4.086-1.226 8.173 8.173 0 00-6.742 3.473 10.114 10.114 0 00-1.737 5.516 5.721 5.721 0 001.635 4.291 5.925 5.925 0 004.393 1.634 7.968 7.968 0 004.495-1.328m11.442 1.328a6.844 6.844 0 01-3.167-.715 5.21 5.21 0 01-2.145-2.043 6.232 6.232 0 01-.817-3.167 9.194 9.194 0 01.2-1.635 9.5 9.5 0 011.643-3.878 8.275 8.275 0 012.963-2.554 8.479 8.479 0 013.882-.919 6.027 6.027 0 014.291 1.532 5.516 5.516 0 011.635 4.188 9.6 9.6 0 01-.1 1.43 12.26 12.26 0 01-.409 1.43v.2h-10.728v.2a2.86 2.86 0 00.817 2.145 3.065 3.065 0 002.247.817 3.78 3.78 0 003.371-1.839h3.78l-.2.409a8.275 8.275 0 01-2.963 3.269 7.968 7.968 0 01-4.495 1.226m4.9-8.888v-.409a2.452 2.452 0 00-.817-1.941 3.167 3.167 0 00-2.145-.715 4.086 4.086 0 00-2.554.919 4.6 4.6 0 00-1.43 2.145zm-3.269-19.1l-5.108 1.124-5.21.919a101.95 101.95 0 01-10.42 1.022h-10.42c-3.473-.1-6.947-.409-10.42-.817s-6.844-.919-10.318-1.635a168.659 168.659 0 01-20.226-5.101c-6.64-2.145-13.28-4.6-20.125-6.845-3.371-1.124-6.947-2.043-10.42-2.963a80.294 80.294 0 00-10.726-2.043 47.912 47.912 0 00-11.135-.1 34.122 34.122 0 00-5.516 1.124l-5.108 1.941a53.224 53.224 0 00-17.47 12.564 63.235 63.235 0 0118.593-9.6l5.007-1.331a30.546 30.546 0 015.006-.511h2.35l-6.03 30.545a6.232 6.232 0 01-1.839 3.371 5.108 5.108 0 01-3.575 1.328 3.78 3.78 0 01-2.758-.919 3.371 3.371 0 01-.919-2.554 5.516 5.516 0 01.1-1.226h-5.821a10.42 10.42 0 00-.2 2.043 6.538 6.538 0 002.35 5.312 9.7 9.7 0 006.334 1.941 12.77 12.77 0 007.866-2.554 10.829 10.829 0 004.188-6.844l5.925-29.932 2.043.306a136.785 136.785 0 0120.023 5.721c6.64 2.35 13.178 5.006 20.125 7.151a128.411 128.411 0 0042.8 6.436l5.414-.306 2.656-.2 2.656-.409a100.621 100.621 0 0010.624-2.043l5.21-1.532 5.108-1.839a42.191 42.191 0 009.5-5.108 52.3 52.3 0 01-10.011 3.371"/></g></svg>