<svg xmlns="http://www.w3.org/2000/svg" width="489" height="129"><defs><style>.a{fill:#fff}.b{fill:#403731;font-size:16px;font-family:SourceHanSansJP-Bold,Source Han Sans JP;font-weight:700}</style></defs><g transform="translate(-143 -7510)"><rect class="a" width="172" height="54" rx="10" transform="translate(460 7510)"/><text class="b" transform="translate(546 7544)"><tspan x="-66.168" y="0">LINE</tspan><tspan y="0">で</tspan><tspan y="0">友達</tspan><tspan y="0">に</tspan><tspan y="0">共有</tspan></text></g><g transform="translate(-169 -7435)"><rect class="a" width="172" height="54" rx="10" transform="translate(486 7510)"/><text class="b" transform="translate(572 7544)"><tspan x="-39.976" y="0">SNS</tspan><tspan y="0">で</tspan><tspan y="0">拡散</tspan></text></g><path d="M293.04 54.543l1.17-1.17a1.26 1.26 0 011.787 0l10.245 10.24a1.26 1.26 0 010 1.787L296 75.645a1.26 1.26 0 01-1.787 0l-1.17-1.17a1.266 1.266 0 01.021-1.808l6.351-6.05h-15.15A1.262 1.262 0 01283 65.354v-1.688a1.262 1.262 0 011.265-1.265h15.147l-6.351-6.047a1.257 1.257 0 01-.021-1.811z" fill="#403731"/><g transform="translate(-417 -7517)"><rect class="a" width="272" height="54" rx="10" transform="translate(417 7555)"/><text class="b" transform="translate(553 7589)"><tspan x="-115.616" y="0">ワンクリックで</tspan><tspan y="0">QR</tspan><tspan y="0">コードを</tspan><tspan y="0">発行</tspan></text></g></svg>