<svg xmlns="http://www.w3.org/2000/svg" width="200" height="200"><defs><clipPath id="a"><path fill="none" d="M0 0h153.457v139.923H0z"/></clipPath><style>.d{fill:#403731}</style></defs><g transform="translate(-1241 -6662.252)"><circle cx="100" cy="100" r="100" transform="translate(1241 6662.252)" fill="#fcc800"/><g transform="translate(1265.104 6700.4)" clip-path="url(#a)"><path class="d" d="M14.625 104.636c-.022 1.95-1.422 2.387-2.55 2.612-1.761.357-2.11-1.31-2.208-2.452-.138-1.677 1.532-1.906 2.674-2.132 1.6-.32 1.266 1.55 2.085 1.972m108.919-14.629c-12.46 10.681-24.99 21.294-37.436 32a9.01 9.01 0 01-6.763 2.256c-10.165-.458-20.34-.746-30.509-1.1a21.711 21.711 0 00-7.775.706c-2.6.873-6.239 1.019-3.714 5.519.808 1.433-.487 2.4-1.714 3.023-4.526 2.31-9.066 4.595-13.592 6.905-1.248.64-2.354 1.161-3.256-.557-.88-1.681.018-2.288 1.357-2.943 3.514-1.732 6.934-3.674 10.5-5.3 1.946-.884 2.2-1.808 1.251-3.645q-7.579-14.723-14.977-29.544c-.979-1.95-1.939-2.561-4.02-1.368-3.02 1.735-6.207 3.169-9.31 4.755-1.244.637-2.317 1.146-3.238-.578-.968-1.8.258-2.321 1.444-2.921 4.271-2.172 8.56-4.315 12.831-6.49.793-.407 1.674-.975 2.437-.375 5.719 4.5 7.855-2.856 12.016-3.671 2.969-.586 1.619-3.653 1.659-5.621.142-7.262.055-14.534.058-21.8 0-7.705.1-15.411-.04-23.109-.062-3.307 1.168-5.777 4.046-7.094 11.762-5.377 23.622-5.21 35.442-.146 1.47.633 3.231 1.75 3.347 3.238.437 5.49 3.394 3.358 6.363 2.608 9.208-2.332 18.441-2.387 27.46.92 5.428 1.99 6.73 4.1 6.734 9.786.011 9.594.051 19.187-.04 28.777-.022 2.277.429 3.518 3.063 3.46a9.873 9.873 0 015.988 2.361c4.213 3.14 4.38 6.519.386 9.946M74.7 42.777c.16 1.484 1.55 2.037 2.707 2.576a32.662 32.662 0 0015.214 2.761c5.282.142 10.434-.513 15.134-3.056 3.1-1.674 3.209-3.442.051-4.831-10.154-4.489-20.482-4.358-30.734-.207-1.08.437-2.55 1.15-2.372 2.758m.418 12.839a7.491 7.491 0 004.02 2.467 42.054 42.054 0 0014.232 1.983c.633-.04 2.23-.1 3.813-.251 3.922-.375 7.764-1.066 11.2-3.151 2.692-1.637 2.441-4.526 1.714-6.629-.946-2.732-2.921-.08-4.217.273a51.385 51.385 0 01-27.049-.018c-1.361-.36-3.118-2.332-4.107-.5a5.846 5.846 0 00.4 5.825m1.2 13.013a16.847 16.847 0 003.576 1.558 41.7 41.7 0 0024.4.189c5.941-1.7 6.621-3.078 5.533-9.659a48.865 48.865 0 01-31.084 1.426c-1.313-.364-3.307-2.343-3.98-.495-.8 2.2-1.342 5.253 1.564 6.981m-.712 11.308a11.134 11.134 0 003.791 2.048 43.4 43.4 0 0022.771 1.059c6.137-1.262 8.437-4.606 7.815-10.1-1.1-.4-1.935.346-2.867.655a48.157 48.157 0 01-28.693.426c-1.23-.342-2.936-2.321-3.671-.546-.8 1.943-1.2 4.657.855 6.461m.993 5.115c-.771-.346-1.739-.673-2.106.546-.378 1.241.291 1.834 1.466 2.136 1.844.473 4.111 1.026 4.777 2.721 2.619 6.69 5.912 2.947 9.157.851 1.317-.851 2.6-1.75 3.9-2.627-6.032-1.055-11.813-1.215-17.193-3.627m-39.4-47.913c10.223 4.235 20.628 4.42 30.829-.106 3.136-1.39 3.009-3.22-.091-4.864-4.74-2.521-9.968-2.925-14.65-3.092-6.276 0-12.846 1.262-15.84 2.929-3.307 1.841-3.562 3.762-.247 5.133M41.4 50.73a42.239 42.239 0 0023.214-.2 9.874 9.874 0 004.944-2.616c1.63-1.837 1.07-4.144.7-6.217-.2-1.113-1.437-.484-2.2-.215-10.972 3.907-21.894 3.405-33.11-.622-.648 7.061.025 8.087 6.45 9.87m.102 11.933a43.367 43.367 0 0022.84-.2c6.072-1.714 6.785-3.009 5.7-9.6a49.61 49.61 0 01-35.162-.025c-.469 7.123.16 8.175 6.618 9.83M38.207 73.49a41.273 41.273 0 0028.482.142c3.642-1.241 4.155-3.98 3.791-7.28-.149-1.332-.586-1.761-1.935-1.244-11.172 4.26-22.327 3.758-33.645-.451-.353 3.693-1.19 7.167 3.307 8.833m32.306 6.661a3.5 3.5 0 010-.437c.269-2.714-.575-3.081-3.22-2.2a46.486 46.486 0 01-29.559.033c-.913-.295-2.47-1.306-2.689-.422a18.441 18.441 0 00-.215 6.45c.178 1.517 1.579.7 2.5.589 5.115-.611 10.216-.571 15.018 1.459 3.569 1.506 7.156 2.354 10.318 1.957 8.026.007 8.026.007 7.844-7.429m50.056 2.918c-3.394-2.372-6.778-2.074-10.176.055-8.491 5.322-18.067 9.484-25.2 16.233-7.389 6.992-15.305 6.276-23.7 6.185-1.633-.018-4.744 1.528-4.591-1.994.142-3.343 3.136-1.67 4.813-1.768 4.2-.255 8.429.015 12.635-.153 3.045-.124 4.94-1.939 4.915-5.013-.022-3.045-1.823-4.8-4.951-4.94-1.593-.069-3.2.04-4.791-.036-5.05-.24-10.372 1.19-15.1-1.04-11.573-5.464-21.676-2.456-31.433 4.435-1.75 1.233-1.863 2.1-.946 3.838 2.834 5.4 5.5 10.889 8.269 16.324 1.121 2.19 1.852 5.079 3.667 6.279 1.968 1.3 4.406-1.2 6.778-1.626 7.109-1.27 14.214.084 21.312.5 5.664 0 11.322.007 16.986-.007 1.415 0 2.779.16 4.075-.96q18.805-16.208 37.752-32.259c2.023-1.714 1.386-2.856-.317-4.049M122.148 0h20.111v34.525h-20.111z"/><path class="d" d="M132.199 46.344l21.257-20.57h-42.509z"/></g></g></svg>