<svg xmlns="http://www.w3.org/2000/svg" width="200" height="200"><defs><clipPath id="a"><path fill="none" d="M0 0h148.344v148.015H0z"/></clipPath></defs><g transform="translate(-858 -6662.252)"><circle cx="100" cy="100" r="100" transform="translate(858 6662.252)" fill="#fcc800"/><g transform="translate(886 6699.881)" clip-path="url(#a)"><path d="M103.263.003c10.725.073 17.133 6.04 16.884 16.524-.084 3.47 3.194 5.424 2.612 8.924-.425 2.57-.211 4.815-3.041 6.554-2.731 1.681-3.987 5.205-4.313 8.243-.318 2.98.295 6.155 4.6 7.117a56.437 56.437 0 0115.3 6.059 21.483 21.483 0 018.384 7.614c.54.9 1.256 2-.126 2.727-1.049.552-2.329 1.1-3.271-.291-4.945-7.285-13.053-9.112-20.553-12.054-2.271-.892-4.006-.793-5.753 1.026a56.925 56.925 0 01-4.531 3.861c-6.071 5.14-9.5 4.677-14.241-1.766a1.9 1.9 0 01.084-2.788c.781-.9 1.513-1.321 2.693-.421 1.873 1.429 3.463 4.6 5.757 3.773 2.712-.981 4.8-3.65 7.2-5.519 1.295-1 1.754-2.325.95-3.6-1.015-1.609-2.13-.069-3.1.364a11.95 11.95 0 01-8.917.647c-.923-.306-2.444-.333-2.053-1.854.28-1.088.8-2.639 2.409-2.21 7.6 2.026 10.326-2.922 12.9-8.553 1.153-2.524 1.666-5.634 4.788-6.967a1.534 1.534 0 00.322-2.382c-3.524-2.67-2.084-6.408-2.218-9.733-.234-6.059-3.405-9.794-9.591-10.855-7.331-1.259-13.379 1.387-15.371 6.86-.617 1.689-.62 4.114-3.286 3.122-2.543-.946-1.088-3.148-.613-4.665 1.885-5.987 8.338-9.813 16.095-9.757M32.526 16.815a6.894 6.894 0 01-1.245 4.232c-2.034 2.762-1.785 8.71.532 10.012 3.194 1.8 3.949 4.968 5.213 7.806 1.67 3.75-.169 7.132-4.144 8.388-5.7 1.8-11.364 3.646-16.5 6.8a20.2 20.2 0 00-7.477 7.281c-.5.908-1.161 2.049.326 2.677.927.391 2.038.927 2.907-.226.467-.609.854-1.279 1.36-1.846 5.573-6.285 13.222-9.07 20.959-10.537 4.309-.816 7.17 4.52 10.855 6.825.387.245.735.548 1.107.82 1.337.969 2.666 2.474 4.435 1.046 2.593-2.087 5.669-3.811 7.128-6.883.444-.931-.95-2.689-2.677-2.026a7.6 7.6 0 00-2.857 2.233c-2.172 2.589-4.16 2.39-6.431.1a32.375 32.375 0 00-4.347-3.374 2.851 2.851 0 01-.831-4.052c.946-1.62 2.156-.172 3.122.287a12.34 12.34 0 008.063.877c1.214-.257 3.087-.3 2.754-2.29-.306-1.846-1.593-2.245-3.443-1.842-4.986 1.086-7.962-1.42-10.306-5.62-1.957-3.5-2.409-8-6.408-10.3a2.194 2.194 0 01-.2-2.061c3.562-3.03 1.861-7.086 2.149-10.705a10.265 10.265 0 012.762-6.584c5.761-6.14 21.484-4.734 22.583 4.723.222 1.911 1.432 2.149 2.922 1.965 2.363-.3 1.341-2.022 1.118-3.168C64.677 4.593 57.993-.022 49.674.02 38.609.085 32.863 5.703 32.526 16.815m83.866 61.666c-2.685 2.635-3.792-1.59-5.347-3.018-5.634-5.151-12.769-7.06-19.691-9.46-1.57-.548-2.555.372-3.562 1.425-2.846 2.988-5.841 5.845-8.626 8.894-2.042 2.241-3.719 2.1-5.711-.046-2.7-2.922-5.65-5.6-8.323-8.549a4.222 4.222 0 00-5.267-1.226c-7.565 2.815-15.654 4.7-20.5 12.088-1 1.524-2.21.7-3.229.245-1.559-.7-.575-1.816-.1-2.666a19.928 19.928 0 017.523-7.228 56.677 56.677 0 0116.075-6.561c3.83-.935 5.033-3.344 4.811-6.527a13.92 13.92 0 00-4.217-8.9c-3.612-3.512-4.435-7.258-1.6-11.4a6.456 6.456 0 00.9-3.876c.308-11.073 6.103-16.741 17.172-16.753 10.479-.011 16.275 5.776 16.47 16.42.027 1.344-.157 2.666.666 3.968 3.152 4.983 2.52 7.419-1.735 11.874a12.782 12.782 0 00-3.715 8.2c-.107 3.286.789 5.83 4.872 7 7.316 2.091 14.75 4.42 20.358 10.031 1.616 1.624 5.217 3.677 2.773 6.071m-31.454-17.7c-1.019-1.689-2.11-.027-3.034.383a12.6 12.6 0 01-11.02.015c-.686-.326-1.344-.7-2.068-1.088-.866.218-1.1.9-1.318 1.628-.582 1.934 7.109 11.108 9.108 10.828a1.515 1.515 0 00.774-.444c2.555-2.6 5.148-5.178 7.614-7.871.931-1.019.532-2.482-.057-3.451m6.2-18.822a2.175 2.175 0 00.1-2.061c-3.666-2.838-1.846-6.776-2.061-10.211-.429-6.764-4.995-10.7-12.816-10.629-7.757.061-12.457 4.139-12.837 10.694-.2 3.432 1.658 7.4-2.137 10.177a2.207 2.207 0 00.13 2.045c4.386 2.769 4.818 7.94 7.316 11.835a9.4 9.4 0 007.515 4.523 9.256 9.256 0 007.523-4.527c2.44-3.926 2.961-9.032 7.27-11.855m15.681 75.4c-8.909 9.461-17.937 18.81-26.693 28.416-2.788 3.06-4.562 2.922-7.27-.031-8.99-9.805-18.163-19.438-27.336-29.071-3.658-3.842-5.661-8.281-5.661-15.4.218-6.259 3.8-12.356 11.146-15.715 8.086-3.692 15.715-1.961 22.112 3.811 2.781 2.513 4.075 2.425 6.768 0 8.695-7.821 20.618-7.465 28.033.421 7.381 7.844 6.94 19.04-1.1 27.574m2.191-13.62c-.08-7.53-4.474-13.413-10.786-15.363-6.044-1.869-14.114 1.092-18.278 6.714-3.5 4.7-3.5 4.7-6.756.2-5.757-7.948-16.221-9.836-23.429-4.229a14.859 14.859 0 00-2.137 21.576c8.817 9.74 18.036 19.113 27 28.723 1.578 1.689 2.47 1.49 3.957-.107 8.848-9.514 17.8-18.921 26.7-28.39a13.746 13.746 0 003.738-9.127M58.039 93.515c-3.723.739-7.622 4.546-8.208 8.361-.142.919-.885 2.248.854 2.509 1.184.172 2.654.391 3.06-1.176a7.553 7.553 0 015.481-5.6c1.072-.337 1.344-1.126 1.325-2.245.119-1.758-.7-2.214-2.513-1.854M26.5 113.264h-3.228v-5.853a1.915 1.915 0 00-3.83 0v5.853h-3.229a1.915 1.915 0 000 3.83h3.229v5.853a1.915 1.915 0 103.83 0v-5.853H26.5a1.915 1.915 0 100-3.83M12.2 92.14H8.967v-5.852a1.915 1.915 0 10-3.83 0v5.853H1.915a1.915 1.915 0 100 3.83h3.221v5.853a1.915 1.915 0 103.83 0v-5.853H12.2a1.915 1.915 0 100-3.83m119.936 18.22H128.9v-5.858a1.915 1.915 0 10-3.83 0v5.856h-3.229a1.915 1.915 0 100 3.83h3.229v5.849a1.915 1.915 0 103.83 0v-5.849h3.229a1.915 1.915 0 000-3.83m14.3-20.894H143.2v-5.851a1.915 1.915 0 10-3.83 0v5.853h-3.229a1.915 1.915 0 100 3.83h3.229v5.853a1.915 1.915 0 103.83 0v-5.853h3.229a1.915 1.915 0 000-3.83" fill="#403731"/></g></g></svg>