<svg xmlns="http://www.w3.org/2000/svg" width="200" height="200"><defs><clipPath id="a"><path fill="none" d="M0 0h171.115v143.64H0z"/></clipPath></defs><g transform="translate(-475 -6662.252)"><circle cx="100" cy="100" r="100" transform="translate(475 6662.252)" fill="#fcc800"/><g transform="translate(493 6703.607)" clip-path="url(#a)"><path d="M170.098 50.164c-1.051-.983-2.07-1.369-3.228-.153a28.591 28.591 0 00-2.649 2.671c-2.487 3.439-4.471 3.188-7.457.117-11.628-11.96-23.579-23.6-35.332-35.426-2.11-2.124-5.706-3.87-5.666-6.725.031-2.011 3.161-4.027 5-5.949 1.131-1.185 1.764-2.146.328-3.6-1.58-1.6-2.671-1.055-3.973.35a102.369 102.369 0 01-6.079 6.088c-2.034 1.868-2.9 3.726-.467 5.832 1.886 1.621 1.145 2.734-.175 4.413-5.5 6.99-14.344 5.823-21.374 9.033-3.129 1.432-4.8-1.7-7.206-2.541-3.6-1.262-7.2-2.2-10.662-1.868-3.246.13-6.083.319-8.795-1.068-4.745-2.429-5.163-3.856-1.782-7.973 1.495-1.818 1.886-3.394.13-5.167-2.4-2.42-4.867-4.777-7.161-7.3-1.419-1.558-2.37-.84-3.547.22-1.419 1.279-1.275 2.343.13 3.5.831.678 1.441 1.643 2.308 2.249 3.838 2.685 3.048 4.858-.036 7.843-11.707 11.359-23.152 22.977-34.707 34.489-2.029 2.02-3.785 4.831-6.249 5.791-3.562 1.391-4.486-3.138-6.861-4.691-1.374-.893-2.29-1.468-3.659-.081-1.324 1.342-1.185 2.37.094 3.6 2.2 2.11 4.373 4.256 6.465 6.465 1.953 2.056 3.816 2.474 5.935.233 1.051-1.109 2.168-2.779 3.928-.9 2.3 2.46 5.329 4.4 6.142 7.973 1.782 7.879 5.787 14.645 10.694 20.894 1.773 2.263 2.33 3.663.036 6.254-4.62 5.226-3.273 12.885 2.77 15.39 3.407 1.419 4.566 3.165 5.455 6.617 1.993 7.722 13.361 6.694 15.1 15.318.328 1.639 3.084 2.352 5.1 2.456 2.348.121 3.663.92 4.8 3.273 3.021 6.249 9.1 7.619 14.761 3.524 1.791-1.3 2.7-1.944 4.9-.292 5.684 4.278 12.377 2.779 16-3.484 1.279-2.218 2.177-2.909 4.853-2.4 5.118.974 9.275-1.14 11.43-5.962 1.028-2.29 2.173-2.55 4.471-2.447 7.789.359 12.068-3.987 11.946-11.722-.022-1.517-.664-2.828 1.365-4.045 8.831-5.3 9.823-11.641 2.873-19.049-2.164-2.3-1.93-3.569-.117-5.688a30.609 30.609 0 007.17-16c.575-4.278 2.95-7.143 5.859-9.913 1.549-1.486 2.761-2.034 4.4-.13 1.306 1.513 2.968 3.026 5.015 1.127 2.757-2.559 5.342-5.3 8-7.964 1.194-1.19.763-2.191-.3-3.183M41.307 106.528c-2.653-.256-4.669-1.724-4.885-4.925-.22-3.322 5.715-9.446 9.051-9.352 3.138.094 5 1.814 5.239 4.965.274 3.529-5.4 9.307-9.405 9.311m10.591 12.59c-2.909-.171-4.916-2.2-5.275-5.621-.386-3.681 6.254-10.424 10.115-10.335 3.556.081 5.621 2.11 5.9 5.63.3 3.865-6.07 10.29-10.739 10.326m12.359 10.775c-3.407-.189-5.221-2.222-5.338-5.553-.108-3.246 6.11-9.432 9.334-9.208 3.291.224 5.185 2.119 5.3 5.046-.121 3.96-6 9.895-9.293 9.715m12.252 8.727c-2.923.09-4.75-1.428-5.1-4.323-.359-2.927 5.172-8.745 8.225-8.66 2.909.076 4.557 1.679 4.79 4.274.067 3.349-4.844 8.615-7.91 8.71m61.568-33.729c-2.312 2.855-6.415 2.164-10.285-1.63-5.5-5.4-10.9-10.9-16.368-16.337-1.185-1.181-2.1-3.107-4.3-1.086-2.415 2.213-.525 3.291.853 4.669 6.6 6.582 13.136 13.239 19.8 19.758 3.053 2.981 4.593 6.155 1.661 9.877-2.429 3.093-6.169 2.487-10.173-1.464-6.635-6.546-13.185-13.185-19.825-19.722-1.248-1.226-2.312-3.632-4.691-1.279s-.04 3.443 1.217 4.718c5.54 5.616 11.093 11.219 16.728 16.741 3.125 3.057 4.409 6.388.947 9.751-3.313 3.21-6.541 1.684-9.378-1.185-5.172-5.221-10.254-10.541-15.623-15.547-1.455-1.356-2.523-5.571-5.657-2.546-3.439 3.313 1.077 4.53 2.478 6.11 3.812 4.274 8.023 8.193 12.148 12.175a6.118 6.118 0 01-2.945 10.474c-3.605.795-6.173-1.612-5.711-5.275.911-7.232-.911-10.115-8-12.121-1.351-.377-2.343-.615-2.465-2.2-.045-.512-.471-.988-.543-1.5-.862-6.07-8.705-4.9-10.263-9.428-1.764-5.109-4.144-8.714-9.643-9.419-1.962-.256-2.016-1.432-2.492-2.833-2.231-6.622-5.76-8.921-12.548-7.812a4.32 4.32 0 01-4.9-2.061c-4.112-5.7-8.094-11.453-9.648-18.443a17.867 17.867 0 00-6.3-9.742c-2.083-1.8-2.8-3.165-.35-5.54 9.9-9.616 19.628-19.412 29.316-29.24 1.787-1.809 2.972-1.913 4.795-.121 4.1 4.027 9.154 5.329 14.82 4.777a16.775 16.775 0 0111.457 2.811c-10.1 6.927-16.647 15.789-21.68 25.855a36.938 36.938 0 00-3.03 7.452c-.9 3.641-1.715 7.52 1.571 10.573 3.479 3.237 7.668 2.869 11.65 1.5 5.1-1.742 8.808-5.41 11.628-9.944a57.882 57.882 0 017.7-10.312c2.1-2.132 3.821-2.572 6.245-.139 13.289 13.329 26.735 26.506 40.086 39.772 2.878 2.855 4.79 6.11 1.7 9.908m11.264-47.8a19.77 19.77 0 00-7.3 13.89 14 14 0 01-.723 2.581c-3.847 12.373-6.406 13.1-15.278 4.323-5.1-5.042-10.16-10.133-15.219-15.215-.229-.229-.274-.629-.588-1.4a16.887 16.887 0 007.3-2.676c1.14-.781 3.43-1.329 2.155-3.439-.983-1.643-2.447-2.3-4.512-.934a14.256 14.256 0 01-5.477 2.043c-4.081.651-7.08-1.347-9.872-4.225-5.073-5.226-7.861-5.1-13.141-.112a54.066 54.066 0 00-8.512 11.053 18.657 18.657 0 01-8.588 7.852c-2.236.934-4.691 1.562-6.694.081-2.285-1.693-1.437-4.319-.584-6.456 6.959-17.428 17.347-31.449 37-35.57 5.648-1.185 10.667-3.008 14.335-7.623 1.589-2 2.9-1.989 4.763-.1q15.5 15.7 31.211 31.184c1.966 1.935 1.585 3.214-.283 4.745" fill="#403731"/></g></g></svg>