<svg xmlns="http://www.w3.org/2000/svg" width="251.04" height="484.245"><defs><style>.a{fill:#fcc800}.b{fill:none;stroke:#fcc100;stroke-linecap:round;stroke-width:12px}</style></defs><g transform="translate(-364.119 -1200)"><rect class="a" width="119.186" height="30.29" rx="15.145" transform="translate(430.046 1599.764)"/><path class="a" d="M527.622 1641.642h-75.965a14.085 14.085 0 00-14.044 14.044v2.2a14.085 14.085 0 0014.044 14.044h14.788c3.983 7.257 12.867 12.313 23.194 12.313s19.211-5.055 23.194-12.313h14.789a14.085 14.085 0 0014.043-14.044v-2.2a14.085 14.085 0 00-14.043-14.044zM578.547 1321.926c-23.066-20.416-54.64-31.659-88.908-31.659s-65.841 11.243-88.908 31.658c-23.952 21.2-36.612 49.79-36.612 82.677 0 33.955 13.769 72.667 36.831 103.553a138.688 138.688 0 0126.79 67.231 10.541 10.541 0 0010.48 9.359h102.837a10.541 10.541 0 0010.481-9.359 138.679 138.679 0 0126.79-67.231c23.062-30.886 36.831-69.6 36.831-103.553 0-32.887-12.661-61.477-36.612-82.676zM477.319 1493.51a17.34 17.34 0 0024.637 0c6-5.665 9.508-15.04 9.392-25.077a30.567 30.567 0 00-4.855-16.4c9.455 1 19.73 6.179 19.73 28.284 0 27.769-15.859 58.575-29.483 82.905h-14.204c-13.623-24.331-29.483-55.136-29.483-82.905 0-22.1 10.275-27.288 19.73-28.284a30.563 30.563 0 00-4.854 16.4c-.116 10.034 3.395 19.412 9.39 25.077zm5.866-24.9a15.235 15.235 0 016.452-12.589 15.234 15.234 0 016.452 12.589c.075 6.457-2.263 11.588-4.612 13.808a3.576 3.576 0 01-1.516.961c-.11 0-.22 0-.331.006s-.21-.006-.315-.006a3.522 3.522 0 01-1.517-.962c-2.347-2.219-4.685-7.35-4.611-13.807zm77.9 26.669a161.583 161.583 0 00-29 65.178l-.543 2.769h-17.364c13.379-24.556 27.306-54.319 27.306-82.905 0-27.808-14.324-43.756-39.3-43.756a36.318 36.318 0 00-12.546 2.365 36.322 36.322 0 00-12.546-2.365c-24.975 0-39.3 15.948-39.3 43.756 0 28.587 13.926 58.35 27.305 82.905h-17.364l-.542-2.769a161.585 161.585 0 00-29-65.178c-20.08-26.891-32.554-61.637-32.554-90.676 0-26.927 9.876-49.322 29.355-66.563 19.129-16.929 45.638-26.252 74.645-26.252s55.516 9.323 74.645 26.253c19.478 17.24 29.355 39.636 29.355 66.562.002 29.039-12.473 63.784-32.552 90.676z"/><path class="b" d="M490.471 1254.303v-48.3M555.198 1265.553l24.15-41.829M424.779 1265.555l-24.15-41.829"/></g></svg>