<svg xmlns="http://www.w3.org/2000/svg" width="150" height="79.265"><defs><clipPath id="a"><path fill="none" d="M0 0h150v79.265H0z"/></clipPath></defs><g clip-path="url(#a)"><path d="M125.057 50.993l-23.411-4.171a12.939 12.939 0 00.17-1.958 6.443 6.443 0 00-.085-1.277l23.326-4.086h.17a.255.255 0 000-.17l-.17-.851a.255.255 0 00-.255-.17l-23.326 4.086a12.77 12.77 0 00-1.022-3.065l20.431-11.833v-.17a.255.255 0 000-.17l-.426-.681h-.344L99.688 38.228a12.855 12.855 0 00-2.043-2.554l15.07-17.967v-.341l-.681-.511h-.341L96.879 34.818a12.855 12.855 0 00-2.809-1.7l8-22.049a.255.255 0 00-.17-.255l-.766-.255h-.255l-8 21.964a12.855 12.855 0 00-3.235-.6V8.683a.255.255 0 00-.255-.255h-.851a.255.255 0 00-.255.255v23.411a12.855 12.855 0 00-3.235.6l-8-22.049h-.255l-.766.255a.255.255 0 00-.17.255l8 21.964a12.855 12.855 0 00-2.809 1.7L65.977 16.856h-.341l-.681.511v.341L80.023 35.67a12.94 12.94 0 00-2.043 2.558L57.634 26.391h-.341l-.426.681a.255.255 0 000 .17v.17l20.432 11.833a12.77 12.77 0 00-1.022 3.065l-23.24-4.082a.255.255 0 00-.255.17l-.17.851a.17.17 0 000 .17h.17l23.326 4.086c0 .426-.085.851-.085 1.277a12.939 12.939 0 00.17 1.958l-2.469.426 1.107.341 1.532.426a12.683 12.683 0 00.6 1.788 119.181 119.181 0 0020.942 4.171 12.855 12.855 0 001.617-1.873l1.022.6 2.894.17-3.235-1.873a12.769 12.769 0 001.107-2.98l20.431 3.575 2.98.511h.17v-.17l.17-.851a.255.255 0 00-.085-.17h-.085" fill="#ffba00"/><path d="M39.586 72.021a5.533 5.533 0 01-2.724-.681 4.6 4.6 0 01-1.788-1.788 5.448 5.448 0 01-.681-2.638 7.492 7.492 0 01.936-3.661 7.066 7.066 0 012.639-2.639 7.151 7.151 0 013.661-1.022 5.619 5.619 0 012.724.681 4.767 4.767 0 011.873 1.788 5.278 5.278 0 01.681 2.639 7.236 7.236 0 01-7.321 7.321m1.7-9.96a3.405 3.405 0 00-2.043.681 4.342 4.342 0 00-1.447 1.7 5.534 5.534 0 00-.511 2.384 2.809 2.809 0 00.681 2.043 2.384 2.384 0 001.788.681 3.575 3.575 0 002.043-.681 4.512 4.512 0 001.447-1.7 5.108 5.108 0 00.511-2.3 2.724 2.724 0 00-.766-2.043 2.554 2.554 0 00-1.873-.681m13.706 9.875a4.852 4.852 0 01-2.384-.6 4.171 4.171 0 01-1.192-.936l-.255 1.277h-2.892l3.32-19.41h2.894l-1.447 8.688a6.47 6.47 0 011.447-.936 6.044 6.044 0 012.554-.6 5.023 5.023 0 012.469.6 4.256 4.256 0 011.7 1.7 5.363 5.363 0 01.6 2.554 7.662 7.662 0 01-.17 1.362 8.173 8.173 0 01-1.277 3.235 7.236 7.236 0 01-2.384 2.213 6.129 6.129 0 01-2.98.766m1.192-9.79a3.661 3.661 0 00-1.7.426 4.257 4.257 0 00-1.447 1.277 4.682 4.682 0 00-.851 1.958 4 4 0 00-.085.851 2.724 2.724 0 00.766 2.043 2.554 2.554 0 001.873.766 3.575 3.575 0 001.7-.426 4.256 4.256 0 001.447-1.277 4.852 4.852 0 00.851-2.043 4 4 0 00.085-.851 2.554 2.554 0 00-2.639-2.724m12.6 9.7l.426-2.469h-1.707a1.277 1.277 0 01-.766-.17c-.085 0-.17-.085-.17-.426v-.341l1.107-6.215h2.809l.426-2.469h-2.806l.511-2.894H65.55l-.514 2.903h-1.358l-.426 2.469h1.362l-1.107 6.129a4.767 4.767 0 00-.085.936 2.3 2.3 0 00.851 1.958 3.661 3.661 0 002.3.6zm6.725.17a5.7 5.7 0 01-2.639-.6 4.342 4.342 0 01-1.788-1.7 5.193 5.193 0 01-.681-2.639 7.663 7.663 0 01.17-1.362 7.917 7.917 0 011.362-3.235 6.9 6.9 0 012.47-2.119 7.066 7.066 0 013.235-.766 5.023 5.023 0 013.575 1.277 4.6 4.6 0 011.362 3.49 8 8 0 01-.085 1.192 10.217 10.217 0 01-.341 1.192v.171h-8.77v.17a2.384 2.384 0 00.681 1.788 2.554 2.554 0 001.873.681 3.15 3.15 0 002.809-1.532h3.15l-.17.341a6.9 6.9 0 01-2.469 2.722 6.64 6.64 0 01-3.75 1.022m4.086-7.406v-.341a2.043 2.043 0 00-.681-1.617 2.639 2.639 0 00-1.788-.6 3.405 3.405 0 00-2.123.772 3.831 3.831 0 00-1.194 1.785zm6.64 7.236l1.107-6.385a3.831 3.831 0 011.107-2.3 3.15 3.15 0 012.043-.681h.851l.511-2.98h-.255a4.342 4.342 0 00-2.3.6 5.449 5.449 0 00-1.192.936l.255-1.362h-2.888L83.258 71.85zm8.683 0l1.107-6.385a3.831 3.831 0 011.107-2.3 3.15 3.15 0 012.043-.681h.851l.6-2.98h-.255a4.342 4.342 0 00-2.3.6 5.449 5.449 0 00-1.192.936l.255-1.362h-2.892L91.936 71.85zm10.3.17a4.767 4.767 0 01-2.469-.6 4.342 4.342 0 01-1.7-1.788 5.533 5.533 0 01-.6-2.639 7.066 7.066 0 01.17-1.362 7.917 7.917 0 011.277-3.15 7.066 7.066 0 012.384-2.128 6.3 6.3 0 013.15-.851 4.767 4.767 0 012.384.6 4.171 4.171 0 011.107.936l.255-1.277h2.894l-2.121 12.088h-2.894l.255-1.277-1.447.936a5.959 5.959 0 01-2.554.6m2.213-10.045a3.661 3.661 0 00-1.7.426 4.257 4.257 0 00-1.447 1.277 4.6 4.6 0 00-.851 1.958 4.086 4.086 0 00-.085.851 2.809 2.809 0 00.766 2.128 2.554 2.554 0 001.873.766 3.575 3.575 0 001.7-.426 4.257 4.257 0 001.447-1.277 4.767 4.767 0 00.851-1.958 4 4 0 00.085-.851 2.724 2.724 0 00-.766-2.043 2.554 2.554 0 00-1.873-.766m16.175 8.854a6.981 6.981 0 002.469-2.894l.17-.341h-3.15a2.98 2.98 0 01-2.809 1.7 2.213 2.213 0 01-1.788-.681 2.809 2.809 0 01-.6-1.958 7.068 7.068 0 01.085-1.022 5.108 5.108 0 011.277-2.894 3.15 3.15 0 012.384-.936 2.384 2.384 0 011.532.426 1.958 1.958 0 01.681 1.192v.17h3.065v-.255a4.256 4.256 0 00-1.447-2.98 5.193 5.193 0 00-3.405-1.022 6.81 6.81 0 00-5.619 2.894 8.428 8.428 0 00-1.447 4.6 4.767 4.767 0 001.362 3.575 4.938 4.938 0 003.661 1.362 6.64 6.64 0 003.75-1.11m9.535 1.107a5.7 5.7 0 01-2.639-.6 4.341 4.341 0 01-1.788-1.7 5.193 5.193 0 01-.681-2.639 7.663 7.663 0 01.17-1.362 7.917 7.917 0 011.362-3.235 6.9 6.9 0 012.469-2.128 7.066 7.066 0 013.235-.766 5.023 5.023 0 013.575 1.277 4.6 4.6 0 011.362 3.49 8 8 0 01-.085 1.192 10.216 10.216 0 01-.341 1.192v.172h-8.939v.17a2.384 2.384 0 00.681 1.788 2.554 2.554 0 001.873.681 3.15 3.15 0 002.809-1.532h3.15l-.17.341a6.9 6.9 0 01-2.469 2.724 6.64 6.64 0 01-3.746 1.022m4.086-7.406v-.341a2.043 2.043 0 00-.681-1.617 2.639 2.639 0 00-1.788-.6 3.405 3.405 0 00-2.128.766 3.831 3.831 0 00-1.192 1.788zm-2.724-15.919l-4.257.936-4.342.766a84.959 84.959 0 01-8.683.851h-8.682c-2.894-.085-5.789-.341-8.683-.681s-5.7-.766-8.6-1.362a140.55 140.55 0 01-16.854-4.259c-5.534-1.788-11.067-3.831-16.771-5.7-2.809-.936-5.789-1.7-8.683-2.469a66.913 66.913 0 00-8.939-1.7 39.926 39.926 0 00-9.279-.085 28.434 28.434 0 00-4.6.936l-4.257 1.617A44.353 44.353 0 007.236 48.099a52.7 52.7 0 0115.494-8l4.171-1.107a25.455 25.455 0 014.171-.426h1.958l-5.022 25.448a5.193 5.193 0 01-1.532 2.809 4.257 4.257 0 01-2.98 1.107 3.15 3.15 0 01-2.3-.766 2.809 2.809 0 01-.766-2.128 4.6 4.6 0 01.086-1.022h-4.852a8.683 8.683 0 00-.17 1.7 5.448 5.448 0 001.958 4.427 8.087 8.087 0 005.278 1.617 10.641 10.641 0 006.555-2.128 9.024 9.024 0 003.49-5.7l4.938-24.943 1.7.255a113.988 113.988 0 0116.688 4.772c5.533 1.958 10.982 4.171 16.771 5.959a107.009 107.009 0 0035.67 5.363l4.512-.255 2.213-.17 2.213-.341a83.853 83.853 0 008.854-1.7l4.342-1.277 4.257-1.532a35.159 35.159 0 007.917-4.257 43.586 43.586 0 01-8.344 2.81" fill="#3eb0af"/></g></svg>