<svg xmlns="http://www.w3.org/2000/svg" width="1074.036" height="130"><defs><linearGradient id="a" x1="-.056" y1="1.11" x2=".982" y2=".425" gradientUnits="objectBoundingBox"><stop offset="0" stop-color="#68e0cf"/><stop offset="1" stop-color="#005bd6"/></linearGradient></defs><path d="M58.587-41.3c0 9.037-4.248 13.556-11.505 13.556-7.788 0-12.39-5.04-12.39-15.468H4.6c0 27.46 17.877 42.059 43.365 42.059 24.6 0 40.887-13.9 40.887-40.147v-83.075H58.587zm160.185-9.56c0-30.762-22.3-49.88-51.33-49.88-28.851 0-51.33 19.118-51.33 49.88S138.06-.98 167.088-.98s51.684-19.12 51.684-49.88zm-71.862 0c0-16.511 9.558-24.158 20.532-24.158 10.62 0 20.532 7.647 20.532 24.158 0 16.337-10.089 24.158-20.886 24.158-10.974.002-20.178-7.821-20.178-24.158zM274-85.619v-45.361h-30.271V-2.37H274v-13.557C279.483-7.41 289.926-.98 304.44-.98c24.249 0 43.542-19.465 43.542-50.053s-19.116-49.706-43.542-49.706c-14.16 0-24.957 6.43-30.44 15.12zm43.188 34.586c0 15.468-10.266 24.158-21.771 24.158-11.328 0-21.594-8.516-21.594-23.984s10.266-23.984 21.594-23.984c11.501-.001 21.767 8.343 21.767 23.81zm60.357 14.947c0 25.2 14.337 33.717 34.869 33.717h15.4v-25.2h-10.8c-6.726 0-9.2-2.433-9.2-8.168V-74.67h19.824v-24.679h-19.83v-23.636h-30.267v23.636h-12.036v24.679h12.036zm119.471-40.843c10.089 0 18.585 6.083 18.585 16.684h-37.878c1.77-10.775 9.377-16.684 19.293-16.684zm47.259 42.406h-32.214c-2.478 5.214-7.257 9.385-15.753 9.385-9.735 0-17.7-5.909-18.762-18.6h68.5a73.758 73.758 0 00.531-8.69c0-29.545-20.355-48.316-49.206-48.316-29.382 0-49.914 19.118-49.914 49.88S468.342-.98 497.37-.98c24.603 0 42.13-14.599 46.905-33.543zm57.348-12.861c0-16.684 8.319-21.551 22.656-21.551h8.321v-31.457c-13.275 0-24.072 6.952-30.975 17.206v-16.163h-30.269V-2.37h30.267zm84.606 0c0-16.684 8.319-21.551 22.656-21.551h8.315v-31.457c-13.275 0-24.072 6.952-30.975 17.206v-16.163h-30.263V-2.37h30.267zm48.321-3.65c0 30.588 19.293 50.053 43.365 50.053 14.691 0 25.134-6.6 30.621-15.12V-2.37H838.8v-96.979h-30.264v13.73c-5.31-8.516-15.753-15.12-30.444-15.12-24.249 0-43.542 19.117-43.542 49.706zm73.986.174c0 15.468-10.089 23.984-21.594 23.984-11.328 0-21.594-8.69-21.594-24.158s10.266-23.81 21.594-23.81c11.505 0 21.594 8.516 21.594 23.984zm55.047 0c0 30.762 20.532 49.88 49.56 49.88 24.78 0 42.3-14.078 47.436-36.5h-32.214c-2.655 7.126-7.434 11.123-15.753 11.123-10.8 0-18.231-8.342-18.231-24.505s7.434-24.505 18.231-24.505c8.319 0 13.275 4.345 15.753 11.123h32.214c-5.133-23.115-22.656-36.5-47.436-36.5-29.028.005-49.56 19.296-49.56 49.884zm165.495-26.07c10.089 0 18.585 6.083 18.585 16.684h-37.878c1.77-10.774 9.381-16.683 19.293-16.683zm47.259 42.406h-32.214c-2.478 5.214-7.257 9.385-15.753 9.385-9.735 0-17.7-5.909-18.762-18.6h68.5a73.758 73.758 0 00.531-8.69c0-29.545-20.355-48.316-49.206-48.316-29.382 0-49.914 19.118-49.914 49.88S1000.4-.98 1029.432-.98c24.603 0 42.126-14.599 46.905-33.543z" transform="translate(-4.602 130.98)" fill="url(#a)"/></svg>