<svg xmlns="http://www.w3.org/2000/svg" width="489" height="129" viewBox="0 0 489 129"><defs><style>.a{fill:#fff;}.b,.c{fill:#403731;}.b{font-size:16px;font-family:SourceHanSansJP-Bold, Source Han Sans JP;font-weight:700;}</style></defs><g transform="translate(-416 -7498)"><g transform="translate(-20 31)"><g transform="translate(293 -43)"><rect class="a" width="172" height="54" rx="10" transform="translate(460 7510)"/><text class="b" transform="translate(546 7544)"><tspan x="-66.168" y="0">LINE</tspan><tspan y="0">で</tspan><tspan y="0">友達</tspan><tspan y="0">に</tspan><tspan y="0">共有</tspan></text></g><g transform="translate(267 32)"><rect class="a" width="172" height="54" rx="10" transform="translate(486 7510)"/><text class="b" transform="translate(572 7544)"><tspan x="-39.976" y="0">SNS</tspan><tspan y="0">で</tspan><tspan y="0">拡散</tspan></text></g></g><path class="c" d="M10.04,4.189l1.17-1.17a1.26,1.26,0,0,1,1.787,0l10.245,10.24a1.26,1.26,0,0,1,0,1.787L13,25.291a1.26,1.26,0,0,1-1.787,0l-1.17-1.17a1.266,1.266,0,0,1,.021-1.808l6.351-6.05H1.265A1.262,1.262,0,0,1,0,15V13.312a1.262,1.262,0,0,1,1.265-1.265H16.412L10.061,6A1.257,1.257,0,0,1,10.04,4.189Z" transform="translate(699 7548.354)"/><g transform="translate(-1 -19)"><rect class="a" width="272" height="54" rx="10" transform="translate(417 7555)"/><text class="b" transform="translate(553 7589)"><tspan x="-115.616" y="0">ワンクリックで</tspan><tspan y="0">QR</tspan><tspan y="0">コードを</tspan><tspan y="0">発行</tspan></text></g></g></svg>