<svg xmlns="http://www.w3.org/2000/svg" width="11" height="11" viewBox="0 0 11 11"><defs><style>.a{fill:#403731;}</style></defs><g transform="translate(-3.375 -3.375)"><path class="a" d="M14.556,10.083a.627.627,0,0,1,.681,0l2.379,1.708a.279.279,0,0,1,.015.475l-2.344,1.683a.625.625,0,0,1-.681,0,.281.281,0,0,1,0-.487L16.6,12.015l-2.042-1.447A.278.278,0,0,1,14.556,10.083Z" transform="translate(-6.775 -3.143)"/><path class="a" d="M3.375,8.875a5.5,5.5,0,1,0,5.5-5.5A5.5,5.5,0,0,0,3.375,8.875Zm.846,0a4.658,4.658,0,1,1,1.364,3.289A4.614,4.614,0,0,1,4.221,8.875Z"/></g></svg>